<svg xmlns="http://www.w3.org/2000/svg" xmlns:xlink="http://www.w3.org/1999/xlink" width="1080" zoomAndPan="magnify" viewBox="0 0 810 809.999993" height="1080" preserveAspectRatio="xMidYMid meet" version="1.0"><defs><g/></defs><g fill="#000000" fill-opacity="1"><g transform="translate(278.500389, 666.121118)"><g><path d="M 210.71875 -423.859375 C 283.78125 -423.859375 341.707031 -404.785156 384.5 -366.640625 C 427.289062 -328.492188 448.6875 -276.921875 448.6875 -211.921875 C 448.6875 -146.929688 427.289062 -95.363281 384.5 -57.21875 C 341.707031 -19.070312 283.78125 0 210.71875 0 L 49.046875 0 C 39.359375 0 34.515625 -4.640625 34.515625 -13.921875 L 34.515625 -409.9375 C 34.515625 -419.21875 39.359375 -423.859375 49.046875 -423.859375 Z M 205.875 -96.28125 C 243.820312 -96.28125 274.300781 -106.875 297.3125 -128.0625 C 320.320312 -149.257812 331.828125 -177.210938 331.828125 -211.921875 C 331.828125 -246.640625 320.320312 -274.59375 297.3125 -295.78125 C 274.300781 -316.976562 243.820312 -327.578125 205.875 -327.578125 L 148.953125 -327.578125 L 148.953125 -96.28125 Z M 205.875 -96.28125 "/></g></g></g><g fill="#000000" fill-opacity="1"><g transform="translate(59.162271, 571.046792)"><g><path d="M 184.140625 10.625 C 136.535156 10.625 97.484375 -1.960938 66.984375 -27.140625 C 36.492188 -52.328125 18.691406 -86.5625 13.578125 -129.84375 C 12.390625 -139.289062 16.914062 -144.015625 27.15625 -144.015625 L 109.78125 -144.015625 C 117.644531 -144.015625 122.5625 -139.882812 124.53125 -131.625 C 127.6875 -117.0625 134.96875 -105.644531 146.375 -97.375 C 157.78125 -89.113281 171.945312 -84.984375 188.875 -84.984375 C 208.15625 -84.984375 223.597656 -91.570312 235.203125 -104.75 C 246.804688 -117.9375 252.609375 -135.351562 252.609375 -157 L 252.609375 -320.484375 L 88.53125 -320.484375 C 79.09375 -320.484375 74.375 -325.007812 74.375 -334.0625 L 74.375 -399.578125 C 74.375 -408.628906 79.09375 -413.15625 88.53125 -413.15625 L 351.765625 -413.15625 C 361.210938 -413.15625 365.9375 -408.628906 365.9375 -399.578125 L 365.9375 -161.71875 C 365.9375 -106.238281 350.296875 -63.644531 319.015625 -33.9375 C 287.734375 -4.226562 242.773438 10.625 184.140625 10.625 Z M 184.140625 10.625 "/></g></g></g><g fill="#ffffff" fill-opacity="1"><g transform="translate(327.63001, 638.285564)"><g><path d="M 54.5 -37.25 C 59.363281 -37.25 63.269531 -35.75 66.21875 -32.75 C 69.164062 -29.75 70.640625 -25.773438 70.640625 -20.828125 L 70.640625 -1.40625 C 70.640625 -0.46875 70.144531 0 69.15625 0 L 60.828125 0 C 59.878906 0 59.40625 -0.46875 59.40625 -1.40625 L 59.40625 -19.328125 C 59.40625 -21.859375 58.710938 -23.890625 57.328125 -25.421875 C 55.941406 -26.960938 54.082031 -27.734375 51.75 -27.734375 C 49.71875 -27.734375 48.082031 -27 46.84375 -25.53125 C 45.601562 -24.070312 44.984375 -22.128906 44.984375 -19.703125 L 44.984375 -1.40625 C 44.984375 -0.46875 44.515625 0 43.578125 0 L 35.171875 0 C 34.234375 0 33.765625 -0.46875 33.765625 -1.40625 L 33.765625 -19.328125 C 33.765625 -21.859375 33.117188 -23.890625 31.828125 -25.421875 C 30.535156 -26.960938 28.820312 -27.734375 26.6875 -27.734375 C 24.414062 -27.734375 22.597656 -27 21.234375 -25.53125 C 19.867188 -24.070312 19.1875 -22.128906 19.1875 -19.703125 L 19.1875 -1.40625 C 19.1875 -0.46875 18.710938 0 17.765625 0 L 9.4375 0 C 8.5 0 8.03125 -0.46875 8.03125 -1.40625 L 8.03125 -24.765625 C 8.03125 -26.691406 7.0625 -27.65625 5.125 -27.65625 C 4.925781 -27.65625 4.382812 -27.582031 3.5 -27.4375 C 2.40625 -27.4375 1.859375 -27.832031 1.859375 -28.625 L 1.859375 -34.71875 C 1.859375 -35.5625 2.226562 -36.109375 2.96875 -36.359375 C 4.507812 -36.953125 6.296875 -37.25 8.328125 -37.25 C 12.585938 -37.25 15.515625 -35.738281 17.109375 -32.71875 C 20.128906 -35.738281 24.34375 -37.25 29.75 -37.25 C 34.75 -37.25 38.664062 -35.488281 41.5 -31.96875 C 44.570312 -35.488281 48.90625 -37.25 54.5 -37.25 Z M 54.5 -37.25 "/></g></g></g><g fill="#ffffff" fill-opacity="1"><g transform="translate(400.351193, 638.285564)"><g><path d="M 44.46875 -1.640625 C 44.8125 -1.191406 44.894531 -0.804688 44.71875 -0.484375 C 44.550781 -0.160156 44.171875 0 43.578125 0 L 33.015625 0 C 32.421875 0 31.875 -0.269531 31.375 -0.8125 L 15.84375 -16.875 L 15.84375 -1.40625 C 15.84375 -0.46875 15.394531 0 14.5 0 L 6.015625 0 C 5.128906 0 4.6875 -0.46875 4.6875 -1.40625 L 4.6875 -53.609375 C 4.6875 -54.554688 5.128906 -55.03125 6.015625 -55.03125 L 14.5 -55.03125 C 15.394531 -55.03125 15.84375 -54.554688 15.84375 -53.609375 L 15.84375 -18 L 30.5625 -35.328125 C 30.90625 -35.816406 31.472656 -36.0625 32.265625 -36.0625 L 41.71875 -36.0625 C 42.3125 -36.0625 42.671875 -35.898438 42.796875 -35.578125 C 42.921875 -35.253906 42.785156 -34.847656 42.390625 -34.359375 L 28.484375 -18 Z M 44.46875 -1.640625 "/></g></g></g><g fill="#ffffff" fill-opacity="1"><g transform="translate(446.709758, 638.285564)"><g><path d="M 24.3125 1.1875 C 19.457031 1.1875 15.628906 -0.1875 12.828125 -2.9375 C 10.023438 -5.6875 8.625 -9.441406 8.625 -14.203125 L 8.625 -27.0625 L 1.78125 -27.0625 C 0.84375 -27.0625 0.375 -27.535156 0.375 -28.484375 L 0.375 -34.65625 C 0.375 -35.59375 0.84375 -36.0625 1.78125 -36.0625 L 8.625 -36.0625 L 8.625 -45.515625 C 8.625 -46.453125 9.09375 -46.921875 10.03125 -46.921875 L 18.359375 -46.921875 C 19.304688 -46.921875 19.78125 -46.453125 19.78125 -45.515625 L 19.78125 -36.0625 L 31.453125 -36.0625 C 32.390625 -36.0625 32.859375 -35.59375 32.859375 -34.65625 L 32.859375 -28.484375 C 32.859375 -27.535156 32.390625 -27.0625 31.453125 -27.0625 L 19.78125 -27.0625 L 19.78125 -14.578125 C 19.78125 -12.691406 20.335938 -11.203125 21.453125 -10.109375 C 22.566406 -9.023438 24.066406 -8.484375 25.953125 -8.484375 C 27.878906 -8.484375 29.738281 -8.703125 31.53125 -9.140625 C 32.46875 -9.296875 33.015625 -8.925781 33.171875 -8.03125 L 34.125 -1.640625 C 34.175781 -0.847656 33.804688 -0.300781 33.015625 0 C 29.835938 0.789062 26.9375 1.1875 24.3125 1.1875 Z M 24.3125 1.1875 "/></g></g></g></svg>